<?xml version="1.0" encoding="utf-8"?>
<!-- Generator: Adobe Illustrator 18.1.1, SVG Export Plug-In . SVG Version: 6.00 Build 0)  -->
<!DOCTYPE svg PUBLIC "-//W3C//DTD SVG 1.1//EN" "http://www.w3.org/Graphics/SVG/1.1/DTD/svg11.dtd">
<svg version="1.1" id="Calque_1" xmlns="http://www.w3.org/2000/svg" xmlns:xlink="http://www.w3.org/1999/xlink" x="0px" y="0px"
	 width="213px" height="115px" viewBox="0 0 213 115" enable-background="new 0 0 213 115" xml:space="preserve">
<g>
	<g>
		<path fill="#C1C1C1" d="M129.1,25.3l1.9-3.2l-2.8-2.6l1.1-3.7l-3.2-1.7l-0.1-3.8l-3.9-0.8l-0.9-4l-3.9,0.7l-2-3.4l-3.4,0.9
			L109,1.2l-3,1.8L102.5,1l-2,2.9l-4.2-1.1l-1.4,3.3l-4.2-0.3l-0.6,3.7l-4,0.6l0.2,3.8l-3.4,1.6l1,3.5L81,21.9l2.1,3.4l-1.9,3.1
			l2.9,2.7l-1.2,3.6l3.5,2l-0.3,3.6l3.9,0.9l0.7,3.6l3.9,0.1l2,3.4l3.5-1.1l2.8,2.9l3.2-2.2l3.3,1.9L112,47l3.7,1.1l1.7-3.1l3.8-0.1
			l1-3.5l3.7-1.1l-0.1-3.5l3.3-2l-1.1-3.3l2.7-2.9L129.1,25.3z M106.8,47.5c-12.1,0.5-22.3-9-22.8-21.1c-0.5-12.1,9-22.3,21.1-22.8
			c12.1-0.5,22.3,9,22.8,21.1C128.4,36.8,118.9,47,106.8,47.5z"/>
		<g>
			<g id="crown_11_">
				<g>
					<g>
						<path fill="#C1C1C1" d="M97.2,22c0.1,0,0.2,0,0.3,0l3.7,12.6h0c0.4,1.4,2.5,2.5,4.9,2.5c2.5,0,4.5-1.1,4.9-2.5h0l3.7-12.6
							c0.1,0,0.2,0,0.3,0c0.7,0,1.3-0.6,1.3-1.3c0-0.7-0.6-1.3-1.3-1.3c-0.7,0-1.3,0.6-1.3,1.3c0,0.5,0.3,1,0.7,1.2l-4.3,9.2
							l0.7-12.4c0,0,0,0,0,0c0.7,0,1.3-0.6,1.3-1.3c0-0.7-0.6-1.3-1.3-1.3c-0.7,0-1.3,0.6-1.3,1.3c0,0.6,0.4,1.1,0.9,1.2l-2.8,12.1
							l-1.4-13.3c0.6-0.1,1.1-0.6,1.1-1.3c0-0.7-0.6-1.3-1.3-1.3c-0.7,0-1.3,0.6-1.3,1.3c0,0.7,0.5,1.2,1.1,1.3l-1.4,13.3l-2.8-12.1
							c0.5-0.2,0.9-0.7,0.9-1.3c0-0.7-0.6-1.3-1.3-1.3c-0.7,0-1.3,0.6-1.3,1.3c0,0.7,0.6,1.3,1.3,1.3c0,0,0,0,0,0l0.7,12.4l-4.3-9.2
							c0.4-0.2,0.7-0.6,0.7-1.2c0-0.7-0.6-1.3-1.3-1.3c-0.7,0-1.3,0.6-1.3,1.3C95.9,21.4,96.5,22,97.2,22z M106.1,33.4
							c2.2,0,4.1,0.6,4.1,1.3c0,0.7-1.8,1.3-4.1,1.3c-2.2,0-4.1-0.6-4.1-1.3C102,34,103.9,33.4,106.1,33.4z"/>
					</g>
				</g>
			</g>
			<path fill="#C1C1C1" d="M106.1,7.6c-10.1,0-18.2,8.2-18.2,18.2c0,10.1,8.2,18.2,18.2,18.2c10.1,0,18.2-8.2,18.2-18.2
				C124.3,15.8,116.2,7.6,106.1,7.6z M106.1,43.5c-9.7,0-17.6-7.9-17.6-17.6c0-9.7,7.9-17.6,17.6-17.6c9.7,0,17.6,7.9,17.6,17.6
				C123.7,35.6,115.8,43.5,106.1,43.5z"/>
		</g>
	</g>
</g>
</svg>
